<svg width="36" height="28" viewBox="0 0 36 28" fill="none" xmlns="http://www.w3.org/2000/svg">
<path d="M16.104 20.232C16.104 16.2 13.608 13.608 9.288 13.608C8.424 13.608 7.752 13.8 7.272 14.088C7.464 9.672 11.496 6.696 15.144 6.12V0.263998C9.096 0.839996 0.264 5.16 0.264 18.024C0.264 23.112 3.528 27.24 8.616 27.24C13.128 27.24 16.104 23.976 16.104 20.232ZM35.016 20.232C35.016 16.2 32.52 13.608 28.2 13.608C27.336 13.608 26.664 13.8 26.184 14.088C26.376 9.672 30.408 6.696 34.056 6.12V0.263998C28.008 0.839996 19.176 5.16 19.176 18.024C19.176 23.112 22.44 27.24 27.528 27.24C32.04 27.24 35.016 23.976 35.016 20.232Z" fill="#111151"/>
</svg>
