<svg width="36" height="28" viewBox="0 0 36 28" fill="none" xmlns="http://www.w3.org/2000/svg">
<path d="M19.896 20.232C19.896 16.2 22.392 13.608 26.712 13.608C27.576 13.608 28.248 13.8 28.728 14.088C28.536 9.672 24.504 6.696 20.856 6.12V0.263998C26.904 0.839996 35.736 5.16 35.736 18.024C35.736 23.112 32.472 27.24 27.384 27.24C22.872 27.24 19.896 23.976 19.896 20.232ZM0.983997 20.232C0.983997 16.2 3.48 13.608 7.8 13.608C8.664 13.608 9.336 13.8 9.816 14.088C9.624 9.672 5.592 6.696 1.944 6.12V0.263998C7.992 0.839996 16.824 5.16 16.824 18.024C16.824 23.112 13.56 27.24 8.472 27.24C3.96 27.24 0.983997 23.976 0.983997 20.232Z" fill="#111151"/>
</svg>
